<svg width="1024" height="1024" viewBox="0 0 1024 1024" fill="none" xmlns="http://www.w3.org/2000/svg">
<path d="M1024 512C1024 794.77 794.77 1024 512 1024C229.23 1024 0 794.77 0 512C0 229.23 229.23 0 512 0C794.77 0 1024 229.23 1024 512Z" fill="url(#paint0_linear_272_122)"/>
<path fill-rule="evenodd" clip-rule="evenodd" d="M512 368C582.693 368 640 310.692 640 240C640 169.308 582.693 112 512 112C441.308 112 384 169.308 384 240C384 310.692 441.308 368 512 368ZM512 310C550.66 310 582 278.66 582 240C582 201.34 550.66 170 512 170C473.341 170 442 201.34 442 240C442 278.66 473.341 310 512 310Z" fill="white"/>
<path fill-rule="evenodd" clip-rule="evenodd" d="M310.345 400H713.656C754.002 400 780.247 439.059 762.2 472.262L528.187 902.805C521.527 915.069 502.496 915.069 495.825 902.805L261.801 472.262C243.754 439.059 269.999 400 310.345 400ZM540.401 755.511L688.881 482.341H688.869C694.885 471.273 686.133 458.25 672.688 458.25H540.401V755.511ZM484.401 756.969L335.12 482.341C329.105 471.273 337.857 458.25 351.302 458.25H484.401V756.969Z" fill="white"/>
<defs>
<linearGradient id="paint0_linear_272_122" x1="161.274" y1="141.192" x2="878.226" y2="869.308" gradientUnits="userSpaceOnUse">
<stop offset="0.35" stop-color="#1E90FF"/>
<stop offset="1" stop-color="#1E416E"/>
</linearGradient>
</defs>
</svg>
